<?xml version="1.0" ?><!DOCTYPE svg  PUBLIC '-//W3C//DTD SVG 1.1//EN'  'http://www.w3.org/Graphics/SVG/1.1/DTD/svg11.dtd'><svg height="100%" style="fill-rule:evenodd;clip-rule:evenodd;stroke-linejoin:round;stroke-miterlimit:2;" version="1.1" viewBox="0 0 32 32" width="100%" xml:space="preserve" xmlns="http://www.w3.org/2000/svg" xmlns:serif="http://www.serif.com/" xmlns:xlink="http://www.w3.org/1999/xlink">
<defs>
  <linearGradient id="myGradient" gradientTransform="rotate(90)">
      <stop offset="50%"  stop-color="#ec2a2a" />
      <stop offset="100%" stop-color="#ec782a" />
  </linearGradient>
</defs>
<path fill = "url(#myGradient)" d="M15.956,2.024c-7.727,-0 -14,6.273 -14,14c0,7.727 6.273,14 14,14c7.727,-0 14,-6.273 14,-14c0,-7.727 -6.273,-14 -14,-14Zm-7.399,14.971l16.443,0c0.552,0 1,-0.448 1,-1c-0,-0.552 -0.448,-1 -1,-1l-16.386,0l7.457,-7.456c0.39,-0.391 0.39,-1.024 0,-1.414c-0.39,-0.391 -1.024,-0.391 -1.414,-0c-0,-0 -5.2,5.2 -7.778,7.778c-0.563,0.562 -0.879,1.325 -0.879,2.121c0,0.796 0.316,1.559 0.879,2.121c2.578,2.578 7.778,7.778 7.778,7.778c0.39,0.391 1.024,0.391 1.414,0c0.39,-0.39 0.39,-1.023 0,-1.414l-7.514,-7.514Z"/></svg>